<?xml version="1.0" encoding="utf-8"?>
<!-- Generator: Adobe Illustrator 16.0.4, SVG Export Plug-In . SVG Version: 6.00 Build 0)  -->
<!DOCTYPE svg PUBLIC "-//W3C//DTD SVG 1.1//EN" "http://www.w3.org/Graphics/SVG/1.1/DTD/svg11.dtd">
<svg version="1.1" id="Layer_1" xmlns="http://www.w3.org/2000/svg" xmlns:xlink="http://www.w3.org/1999/xlink" x="0px" y="0px"
	 width="358px" height="41px" viewBox="30.5 14 358 41" enable-background="new 30.5 14 358 41" xml:space="preserve">
<path d="M70.2,40l7.2,3.5L54.9,54.3L32.4,43.5l7.2-3.5l1.6,0.8l-5.6,2.7l19.4,9.3l19.4-9.3l-5.6-2.7L70.2,40z M68.7,32.3l5.6,2.7
	l-19.4,9.3L35.6,35l5.6-2.7l-1.6-0.8L32.4,35l22.5,10.8L77.5,35l-7.2-3.5L68.7,32.3z M77.5,26.5L54.9,15.7L32.4,26.5l22.5,10.8
	L77.5,26.5z"/>
<g>
	<path d="M108,28.5l-0.9,2.3l-0.1,0.3l-0.3,1l-0.1,0.3l-0.4,1l-0.1,0.3l-0.3,1l-0.1,0.3l-0.4,0.9l-0.1,0.3l-0.3,1l-0.1,0.3l-0.5,1
		l-0.1,0.3l-0.3,1l-0.1,0.3l-0.3,1l-0.1,0.2l-0.1,0.1l-0.1,0l-1.2,0l-1.4-0.1l-0.2,0l-0.1-0.1l-0.5-0.9l-0.1-0.3l-0.3-0.9l-0.1-0.3
		l-0.3-0.9L99,37.5l-0.4-0.9l-0.1-0.3l-0.3-0.9l-0.1-0.2H98L98,35.4l-0.3,0.9l-0.1,0.3l-0.4,0.9L97,37.7l-0.3,1l-0.1,0.3l-0.3,0.9
		l-0.1,0.3L95.9,41l-0.1,0.2l-0.2,0.1l-1.1-0.1h-0.3l-1.1,0.1l-0.2-0.1L92.9,41l-0.5-1l-0.1-0.3l-0.3-1l-0.1-0.3l-0.5-1l-0.1-0.3
		l-0.4-1l-0.1-0.3l-0.3-1l-0.1-0.3l-0.9-2.3l-0.1-0.3l-0.3-1L89,30.8l-0.5-0.9l-0.1-0.3l-0.4-1l0-0.2l0.1-0.1l0.2-0.1h0.3l0.7,0.1
		h0.3l1.2,0h1l0.2,0l0.1,0.1l0,0.2l0.4,1.2l0.1,0.3l0.4,1.2l0.1,0.3l0.5,1.1l0.1,0.3l0.4,1.1l0.1,0.3l0.2,1.1l0.1,0.2l0.1,0l0.1-0.1
		l0.3-0.9l0.1-0.3l0.2-1l0.1-0.3l0.3-0.9l0.1-0.3l0.3-0.9l0.1-0.3l0.3-0.9l0.1-0.3l0.3-0.8l0.1-0.2l0.1-0.1l0.2,0l0.9-0.1l0.3,0
		l0.4,0h0.3l0.3,0l0.2,0.1l0.1,0.2l0.1,0.1l0.1,0.3l0.2,0.5l0.1,0.3l0.3,0.9l0.1,0.3l0.3,0.9l0.1,0.3l0.2,1l0.1,0.3l0.4,0.9l0.1,0.3
		l0.1,0.4l0.1,0.3l0.1,0.3l0.1,0.1l0.1,0l0.1-0.2l0.2-1l0.1-0.3l0.1-0.4l0.1-0.3l0.1-0.4l0.1-0.3l0.2-0.8l0.1-0.3l0.3-0.8l0.1-0.3
		l0.3-0.8l0.1-0.3l0.2-0.7l0.1-0.2l0.1-0.1l0.2,0l1,0.1h0.3l1-0.1h0.3l1,0.1h0.2l0.1,0.1L108,28.5z"/>
	<path d="M122.6,34.6l0,0.3l0,0.4l0,0.3l-0.1,0.5l0,0.4l0,0.3l-0.1,0.3l-0.1,0.3l-0.2,0.4l-0.1,0.3l-0.5,0.8l-0.2,0.2l-0.2,0.2
		l-0.2,0.2l-0.3,0.3l-0.2,0.2l-0.2,0.2l-0.2,0.2l-0.3,0.2l-0.2,0.1l-0.3,0.1l-0.3,0.1l-0.4,0.1l-0.3,0.1l-0.6,0.2l-0.3,0.1l-0.3,0.1
		l-0.3,0.1l-0.3,0.1l-0.3,0h-1l-0.6,0l-0.6-0.1l-0.3-0.1l-0.3-0.1l-1-0.3l-0.3-0.1l-0.3-0.1l-0.6-0.3l-0.3-0.1l-0.3-0.2l-0.2-0.2
		l-0.2-0.2l-0.2-0.2l-0.2-0.2l-0.5-0.5l-0.2-0.2l-0.2-0.2l-0.1-0.2l-0.1-0.4l-0.3-0.8l-0.1-0.4l-0.1-0.3l-0.1-0.3l-0.1-0.3l-0.1-0.4
		l0-0.3l0-0.3v-0.3l0-0.3l0-0.3l0-0.3l0.1-0.3l0.1-0.3l0.1-0.3l0.1-0.3l0.1-0.3l0.1-0.4l0.1-0.3l0.1-0.2l0.1-0.3l0.3-0.4l0.2-0.3
		l0.1-0.1l0.2-0.2l0.3-0.3l0.2-0.2l0.2-0.2l0.5-0.4l0.2-0.1l0.3-0.1l0.3-0.1l0.4-0.2l0.3-0.1l0.3-0.1l0.3-0.1l0.7-0.1l0.3-0.1
		l0.9-0.1l0.6,0l0.5,0l0.4,0l0.3,0l0.3,0.1l0.3,0.1l0.3,0.1l0.3,0.1l0.3,0.1l0.3,0.1l0.4,0.1l0.3,0.1l0.6,0.3l0.2,0.2l0.2,0.2
		l0.3,0.3l0.2,0.2l0.2,0.2l0.2,0.2l0.3,0.3l0.1,0.2l0.1,0.2l0.1,0.2l0.2,0.4l0.1,0.2l0.1,0.3l0.1,0.3l0.1,0.4l0.1,0.5l0,0.3l0.1,0.3
		L122.6,34.6z M118.9,34.9v-0.3l0-0.3l0-0.3l-0.1-0.5l-0.1-0.3l-0.2-0.4l-0.1-0.2l-0.3-0.3l-0.2-0.2l-0.3-0.3l-0.2-0.2l-0.5-0.3
		l-0.3-0.1l-0.3-0.1l-0.3-0.1l-0.6,0l-0.3,0l-0.4,0l-0.3,0.1l-0.5,0.1l-0.3,0.1l-0.4,0.2l-0.3,0.2l-0.3,0.3l-0.2,0.2l-0.2,0.3
		l-0.1,0.2l-0.1,0.1l-0.2,0.4l-0.1,0.3l-0.1,0.1l-0.1,0.3l0,0.3l0,0.3l0,0.3v0.3l0,0.3l0.1,0.3l0,0.2l0.1,0.3l0,0.1l0.1,0.3l0.1,0.1
		l0.1,0.3l0.1,0.1l0.2,0.3l0.1,0.1l0.2,0.2l0.4,0.3l0.3,0.2l0.3,0.1l0.3,0.1l0.4,0.1l0.3,0.1l0.5,0.1l0.3,0l0.5,0l0.3,0l0.4-0.1
		l0.3-0.1l0.4-0.3l0.2-0.2l0.3-0.3l0.2-0.2l0.2-0.3l0.2-0.3l0.2-0.4l0.1-0.3l0.1-0.4l0-0.3L118.9,34.9z"/>
	<path d="M136.5,41.2l-0.2,0.1H135l-1,0h-0.3l-0.8,0h-0.2l-0.2-0.1l-0.1-0.1l-0.6-0.8l-0.2-0.2l-0.6-0.8l-0.2-0.2l-0.5-0.8l-0.2-0.2
		l-0.6-0.8l-0.1-0.1l-0.1-0.1l-0.2,0l-0.6,0l-0.2,0l-0.1,0.1l-0.1,0.2l0,1l0,0.3l0.1,1l0,0.3l0,0.4v0.3l0,0.3l0,0.2l-0.1,0.1
		l-0.2,0.1h-0.3l-0.9-0.1l-0.8,0.1h-0.3l-0.8-0.1l-0.2,0l-0.1-0.1l0-0.2l0-0.3l0-0.3l0-0.5l0-0.3l0.1-1v-0.3l-0.1-1l0-0.3l0-1v-0.3
		l0.1-1v-0.3l-0.1-1v-0.3l0.1-1v-0.3l0-1v-0.3l0-1v-0.3l0-0.6l0-0.3l0-0.1l0.1-0.2l0.1-0.1l0.2-0.1l0.1,0l0.3,0l0.8,0l2.1,0.1
		l1.2-0.1h0.3l1.2,0.1h0.7l0.3,0l0.3,0.1l0.4,0.1l0.3,0.1l0.3,0.1l0.3,0.1l0.3,0.1l0.2,0.1l0.3,0.2l0.2,0.2l0.2,0.2l0.2,0.2l0.3,0.4
		l0.2,0.2l0.2,0.3l0.1,0.3l0.1,0.3l0.1,0.3l0.1,0.3l0,0.3l0,0.4v0.3l0,0.3l0,0.3l-0.1,0.3l-0.1,0.3l-0.1,0.3l-0.1,0.3l-0.2,0.3
		l-0.2,0.2l-0.2,0.2l-0.2,0.2l-0.3,0.3l-0.2,0.2l-0.4,0.2l-0.2,0.1l-0.2,0.1l-0.2,0.1l-0.1,0.1l0.1,0.1l0.6,0.9l0.2,0.2l0.6,0.9
		l0.2,0.2l0.6,0.9l0.2,0.2l0.6,0.6l0.2,0.2l0.1,0.2L136.5,41.2z M131.4,34.2l0.2-0.1l0.2-0.1l0.2-0.2l0.1-0.3l0.1-0.3l0-0.3l0-0.3
		l0-0.3l-0.1-0.3l-0.1-0.3l-0.2-0.2l-0.2-0.2l-0.3-0.1l-0.4-0.1l-0.3,0l-0.9,0h-0.3l-0.9,0.1l-0.2,0l-0.1,0.1l-0.1,0.1l0,0.2l0,0.4
		l0,0.3l0,0.3l0,0.3l0,1l0,0.2l0,0.1l0.1,0.1l0.2,0l0.9,0.1h0.3l1.2-0.1L131.4,34.2z"/>
	<path d="M150.5,35.1l0,0.3l0,0.4l-0.1,0.3l-0.1,0.4l-0.1,0.3l-0.1,0.3l-0.1,0.3l-0.1,0.3l-0.1,0.3l-0.2,0.4l-0.1,0.2l-0.3,0.3
		l-0.2,0.2l-0.3,0.3l-0.4,0.4l-0.2,0.2l-0.3,0.3l-0.2,0.1l-0.4,0.2l-0.2,0.1l-0.4,0.1l-0.3,0.1l-0.3,0.1l-0.3,0.1l-1.1,0.2l-0.3,0
		l-0.4,0h-0.3l-0.6,0l-0.5,0h-0.3l-0.6,0l-0.5,0l-0.3,0l-0.3,0h-1.3l-0.3,0l-0.8-0.1l-0.1-0.1l-0.1-0.1l0-0.2l0-0.3l0-0.1l0-0.5
		v-0.3l0-0.4v-0.3l0-0.3v-0.3l0-1v-0.3l0-1l0-0.3l0-0.4l0-0.3l0-0.3v-0.3l0-0.5l0-0.3v-0.2l0-0.3l0.1-1v-0.3l0-1v-0.3l-0.1-1v-0.7
		l0-0.3l0.1-0.3l0-0.2l0.1-0.1l0.2-0.1l0.3,0l0.3,0l0.3,0l1.6,0h0.3l0.9,0.1l0.1,0h0.3l0.8,0l0.3,0h0.3l0.5,0l0.6,0l0.3,0l0.5,0.1
		l0.3,0.1l0.3,0.1l0.6,0.2l0.3,0.1l0.3,0.1l0.3,0.1l0.6,0.4l0.2,0.2l0.2,0.2l0.4,0.4l0.2,0.2l0.2,0.2l0.1,0.2l0.2,0.4l0.1,0.3
		l0.1,0.3l0.1,0.3l0.1,0.3l0.1,0.3l0.1,0.4l0.1,0.3l0.1,0.3l0,0.3l0,0.4l0,0.3L150.5,35.1z M146.4,36.6l0.1-0.3l0.1-0.3l0.1-0.3
		l0.1-0.4l0-0.3l0-0.4v-0.6l0-0.3l-0.1-0.4l-0.1-0.3l0-0.1l-0.1-0.3l-0.3-0.4l-0.1-0.1l-0.2-0.2l-0.2-0.2l-0.2-0.2l-0.4-0.2
		l-0.3-0.1l-0.3-0.1l-0.3-0.1l-0.5,0l-0.3,0h-0.5l-0.4,0l-0.3,0l-0.4,0.1l-0.2,0.1l-0.1,0.1l-0.1,0.2l0,0.2l0,0.3l0,0.5l0,0.3l0,0.4
		l0,0.3l0,0.3v0.3l0,0.4v0.9l0,0.3l0,0.3l0,0.4v0.3l0,0.4l0,0.3l0.1,0.4l0.1,0.2l0.1,0.1l0.2,0l1.7-0.1l0.4,0l0.3-0.1l0.3-0.1
		l0.3-0.1l0.3-0.1l0.2-0.2l0.3-0.3l0.2-0.2L146.4,36.6z"/>
	<path d="M163.9,32.9l0,0.3l0,0.3l0,0.3l-0.1,0.5l-0.1,0.3l-0.1,0.4l-0.1,0.3l-0.2,0.3l-0.2,0.2l-0.3,0.3l-0.2,0.2l-0.2,0.2
		l-0.2,0.2l-0.2,0.2l-0.3,0.2l-0.4,0.2l-0.3,0.1l-0.3,0.1l-0.3,0.1l-0.4,0.1l-0.3,0.1l-0.3,0l-0.3,0l-0.5,0h-1.5l-0.3,0l-0.3,0
		l-0.3,0l-0.2,0l-0.1,0.1l0,0.2l-0.1,1.2v0.3l0,0.5l0,0.3l0,0.4l0,0.2l-0.1,0.1l-0.1,0l-0.2,0l-0.6,0l-0.7,0H154l-0.6,0l-0.3,0
		l-0.4,0l-0.2-0.1l-0.1-0.1l0-0.2l0-0.3l0-0.3v-1.9l0.1-1v-0.3l-0.1-1v-0.3l0-2.2v-0.3l0.1-1v-0.3l-0.1-1v-0.3l0.1-1v-0.3l0-0.5
		l0-0.3l0-0.1l0-0.2l0.1-0.1l0.1-0.1l0.2,0l0.5,0l0.4,0h0.3l1.2,0h1.2l1.2,0.1h1.2l0.7,0l0.3,0h0.1l0.3,0.1l0.4,0.1l0.3,0.1l0.3,0.1
		l0.3,0.1l0.3,0.2l0.2,0.2l0.3,0.3l0.2,0.2l0.1,0.1l0.3,0.3l0.2,0.2l0.1,0.1l0.1,0.2l0.1,0.1l0.1,0.2l0.1,0.3l0.1,0.3l0,0.1l0.1,0.3
		l0,0.1l0.1,0.3l0.1,0.5V32.9z M158.5,34.6l0.3,0l0.3-0.1l0.1-0.1l0.3-0.1l0.1-0.1l0.2-0.2l0.1-0.1l0.1-0.2l0.1-0.1l0.1-0.3l0-0.1
		v-0.5l-0.1-0.3l-0.1-0.1l-0.1-0.2l-0.1-0.1l-0.2-0.2l-0.1-0.1l-0.3-0.1l-0.5-0.1l-0.3,0h-0.4l-0.5,0l-0.8-0.1h-0.3l-0.1,0l-0.2,0
		l-0.1,0.1l-0.1,0.1l0,0.2v0.4l0.1,0.7l0,0.3l0,1l0,0.2l0.1,0.1l0.2,0.1l0.9,0.1L158.5,34.6z"/>
	<path d="M177.7,41.2l-0.2,0.1h-1.3l-1,0h-0.3l-0.8,0h-0.2l-0.2-0.1l-0.1-0.1l-0.6-0.8l-0.2-0.2l-0.6-0.8l-0.2-0.2l-0.5-0.8
		l-0.2-0.2l-0.6-0.8l-0.1-0.1l-0.1-0.1l-0.2,0l-0.6,0l-0.2,0l-0.1,0.1l-0.1,0.2l0,1l0,0.3l0.1,1l0,0.3l0,0.4v0.3l0,0.3l0,0.2
		l-0.1,0.1l-0.2,0.1h-0.3l-0.9-0.1l-0.8,0.1h-0.3l-0.8-0.1l-0.2,0l-0.1-0.1l0-0.2l0-0.3l0-0.3l0-0.5l0-0.3l0.1-1v-0.3l-0.1-1l0-0.3
		l0-1v-0.3l0.1-1v-0.3l-0.1-1v-0.3l0.1-1v-0.3l0-1v-0.3l0-1v-0.3l0-0.6l0-0.3l0-0.1l0.1-0.2l0.1-0.1l0.2-0.1l0.1,0l0.3,0l0.8,0
		l2.1,0.1l1.2-0.1h0.3l1.2,0.1h0.7l0.3,0l0.3,0.1l0.4,0.1l0.3,0.1l0.3,0.1l0.3,0.1l0.3,0.1l0.2,0.1l0.3,0.2l0.2,0.2l0.2,0.2l0.2,0.2
		l0.3,0.4l0.2,0.2l0.2,0.3l0.1,0.3l0.1,0.3l0.1,0.3l0.1,0.3l0,0.3l0,0.4v0.3l0,0.3l0,0.3l-0.1,0.3l-0.1,0.3l-0.1,0.3l-0.1,0.3
		l-0.2,0.3l-0.2,0.2l-0.2,0.2l-0.2,0.2l-0.3,0.3l-0.2,0.2l-0.4,0.2l-0.2,0.1l-0.2,0.1l-0.2,0.1l-0.1,0.1l0.1,0.1l0.6,0.9l0.2,0.2
		l0.6,0.9l0.2,0.2l0.6,0.9l0.2,0.2l0.6,0.6l0.2,0.2l0.1,0.2L177.7,41.2z M172.6,34.2l0.2-0.1L173,34l0.2-0.2l0.1-0.3l0.1-0.3l0-0.3
		l0-0.3l0-0.3l-0.1-0.3l-0.1-0.3l-0.2-0.2l-0.2-0.2l-0.3-0.1l-0.4-0.1l-0.3,0l-0.9,0h-0.3l-0.9,0.1l-0.2,0l-0.1,0.1l-0.1,0.1l0,0.2
		l0,0.4l0,0.3l0,0.3l0,0.3l0,1l0,0.2l0,0.1l0.1,0.1l0.2,0l0.9,0.1h0.3l1.2-0.1L172.6,34.2z"/>
	<path d="M189.8,39.6l0,0.3l-0.1,1l0,0.2l-0.1,0.1l-0.1,0.1l-2.4,0.1h-0.3l-1-0.1l-0.3,0l-0.9,0.1l-0.3,0h-1.2l-0.9-0.1h-0.3
		l-1.5,0.1l-0.6,0l-0.2,0l-0.1-0.1l-0.1-0.1l0-0.2l0-0.4l0-0.3l0-0.3v-0.3l0.1-1v-0.3l0-1l0-0.3l-0.1-1l0-0.3l0-1v-1.5l0.1-1l0-0.3
		l-0.1-1l0-0.3v-0.4l0-0.5v-0.3l0.1-0.9l0-0.3l0.1-0.1l0.1-0.1l0.1,0l0.2,0l1.2,0.1l1.1,0h0.3l1.1,0.1h0.3l1.1-0.1h0.3l2.4,0l0.3,0
		l0.6-0.1h0.5l0.3,0.1l0.1,0.1l0,0.1l0,0.2v0.5l0,0.5v0.3l0,0.5l0,0.3l0,0.3l0,0.2l-0.1,0.1l-0.1,0.1l-0.2,0h-0.1l-0.3,0l-1.7,0
		h-0.3l-0.9,0h-0.3l-0.9,0l-0.8-0.1h-0.3l-0.1,0l-0.2,0l-0.1,0.1l0,0.1l0,0.2l0,0.4v0.3l0,0.3l0,0.2l0,0.1l0.1,0.1l0.2,0.1l0.6,0
		l0.6,0h1.7l2-0.1l0.6,0l0.2,0l0.1,0.1l0.1,0.1l0,0.2l0,0.3l0,0.3v0.6l0,0.4l0,0.5l0,0.2l-0.1,0.1l-0.1,0.1l-0.2,0h-0.4l-0.8-0.1
		l-0.3,0l-1.4,0.1l-1.2,0h-0.3l-0.7-0.1l-0.3,0l-0.2,0l-0.1,0.1l-0.1,0.1l0,0.3l-0.1,0.5l0,0.3v0.4l0,0.2l0.1,0.1l0.1,0.1l0.2,0l1,0
		h0.3l1-0.1l1.3,0.1h0.3l1.3-0.1h0.3l0.3,0l0.6,0.1l0.1,0.1l0.1,0.1l0,0.2L189.8,39.6z"/>
	<path d="M202.6,37.2l0,0.3l0,0.3l-0.1,0.3l-0.1,0.4l-0.1,0.3l-0.2,0.4l-0.1,0.2l-0.2,0.3l-0.2,0.2l-0.2,0.2l-0.2,0.2l-0.4,0.2
		l-0.2,0.2l-0.3,0.1L200,41l-0.4,0.1l-0.5,0.2l-0.3,0.1l-0.5,0.1l-0.3,0l-0.4,0l-0.3,0l-0.4,0l-0.9,0.1h-0.4l-0.3,0l-0.4,0l-0.3,0
		l-0.3-0.1l-0.3-0.1l-0.4-0.1l-0.3-0.1l-0.3-0.1l-0.3-0.1l-0.2-0.1l-0.6-0.4l-0.2-0.2l-0.3-0.3l-0.2-0.2l-0.2-0.2l-0.1-0.2l0-0.1
		l0.1-0.2l0.1-0.1l0.2-0.2l0.5-0.5l0.2-0.2l0.3-0.5l0.2-0.2l0.2-0.2l0.2-0.1l0.2,0l0.2,0.1l0.6,0.4l0.3,0.1l0.3,0.1l0.4,0.2l0.3,0.1
		l0.3,0.1l0.3,0.1l0.4,0l0.3,0l1.1-0.1l0.3,0l0.1,0l0.3-0.1l0.2-0.1l0.2-0.2l0.1-0.1l0.1-0.3l0-0.3l0-0.1l-0.1-0.3l-0.1-0.1
		l-0.2-0.2l-0.1-0.1l-0.3-0.1l-0.3-0.1l-0.3-0.1l-1.7-0.2l-0.5-0.1l-0.3-0.1l-0.4-0.1l-0.3-0.1l-0.3-0.1l-0.6-0.3L193,35l-0.3-0.2
		l-0.2-0.2l-0.3-0.3l-0.2-0.2l-0.2-0.3l-0.1-0.3l-0.1-0.4l-0.1-0.3l-0.1-0.4l0-0.6l0-0.3l0-0.4l0.1-0.3l0.1-0.2l0.1-0.3l0.2-0.4
		l0.1-0.3l0.1-0.2l0.2-0.2l0.3-0.3L193,29l0.2-0.2l0.3-0.1l0.3-0.2l0.5-0.2l0.3-0.1l0.4-0.1l0.3-0.1l0.5-0.1l0.4-0.1l0.3,0l0.3,0
		h0.3l0.5,0.1l0.3,0l0.1,0l0.3,0l0.6,0.1l0.3,0.1l0.3,0.1l0.3,0.1l0.3,0.1l0.3,0.1l0.3,0.1L201,29l0.3,0.1l0.2,0.2l0.2,0.2v0.2
		l-0.1,0.2l-0.2,0.4l-0.1,0.2l-0.7,0.9l-0.2,0.3l-0.2,0.2l-0.1,0.1l-0.1,0l-0.2-0.1l-0.3-0.2l-0.3-0.1l-0.1-0.1l-0.3-0.1l-0.1,0
		l-0.3-0.1l-0.4-0.1l-0.3,0l-0.5,0h-0.5l-0.3,0l-0.3,0.1l-0.3,0.1l-0.1,0.1l-0.2,0.2l-0.1,0.1l-0.1,0.3l0,0.3l0.1,0.2l0.1,0.2
		l0.2,0.2l0.2,0.1l0.1,0.1l0.3,0.1l0.5,0.1l0.6,0l0.3,0.1l0.6,0.1l0.6,0.2l0.4,0.1l0.3,0.1l0.5,0.2l0.4,0.2l0.3,0.1l0.3,0.1l0.2,0.1
		l0.5,0.4l0.2,0.2l0.2,0.2l0.2,0.3l0.1,0.2l0.1,0.3l0.1,0.3l0.1,0.4l0,0.3L202.6,37.2z"/>
	<path d="M214.6,37.2l0,0.3l0,0.3l-0.1,0.3l-0.1,0.4l-0.1,0.3l-0.2,0.4l-0.1,0.2l-0.2,0.3l-0.2,0.2l-0.2,0.2l-0.2,0.2l-0.4,0.2
		l-0.2,0.2l-0.3,0.1l-0.3,0.1l-0.4,0.1l-0.5,0.2l-0.3,0.1l-0.5,0.1l-0.3,0l-0.4,0l-0.3,0l-0.4,0l-0.9,0.1h-0.4l-0.3,0l-0.4,0l-0.3,0
		l-0.3-0.1l-0.3-0.1l-0.4-0.1l-0.3-0.1l-0.3-0.1l-0.3-0.1l-0.2-0.1l-0.6-0.4l-0.2-0.2l-0.3-0.3l-0.2-0.2l-0.2-0.2l-0.1-0.2l0-0.1
		l0.1-0.2l0.1-0.1l0.2-0.2l0.5-0.5l0.2-0.2l0.3-0.5l0.2-0.2l0.2-0.2l0.2-0.1l0.2,0l0.2,0.1l0.6,0.4l0.3,0.1l0.3,0.1l0.4,0.2l0.3,0.1
		l0.3,0.1l0.3,0.1l0.4,0l0.3,0l1.1-0.1l0.3,0l0.1,0l0.3-0.1l0.2-0.1l0.2-0.2l0.1-0.1l0.1-0.3l0-0.3l0-0.1l-0.1-0.3l-0.1-0.1
		l-0.2-0.2l-0.1-0.1l-0.3-0.1l-0.3-0.1l-0.3-0.1l-1.7-0.2l-0.5-0.1l-0.3-0.1l-0.4-0.1l-0.3-0.1l-0.3-0.1l-0.6-0.3l-0.2-0.2l-0.3-0.2
		l-0.2-0.2l-0.3-0.3l-0.2-0.2l-0.2-0.3l-0.1-0.3l-0.1-0.4l-0.1-0.3l-0.1-0.4l0-0.6l0-0.3l0-0.4l0.1-0.3l0.1-0.2l0.1-0.3l0.2-0.4
		l0.1-0.3l0.1-0.2l0.2-0.2l0.3-0.3L205,29l0.2-0.2l0.3-0.1l0.3-0.2l0.5-0.2l0.3-0.1l0.4-0.1l0.3-0.1l0.5-0.1l0.4-0.1l0.3,0l0.3,0
		h0.3l0.5,0.1l0.3,0l0.1,0l0.3,0l0.6,0.1l0.3,0.1l0.3,0.1l0.3,0.1l0.3,0.1l0.3,0.1l0.3,0.1l0.3,0.2l0.3,0.1l0.2,0.2l0.2,0.2v0.2
		l-0.1,0.2l-0.2,0.4l-0.1,0.2l-0.7,0.9l-0.2,0.3l-0.2,0.2l-0.1,0.1l-0.1,0l-0.2-0.1l-0.3-0.2l-0.3-0.1l-0.1-0.1l-0.3-0.1l-0.1,0
		l-0.3-0.1l-0.4-0.1l-0.3,0l-0.5,0h-0.5l-0.3,0l-0.3,0.1l-0.3,0.1l-0.1,0.1l-0.2,0.2l-0.1,0.1l-0.1,0.3l0,0.3l0.1,0.2l0.1,0.2
		l0.2,0.2l0.2,0.1l0.1,0.1l0.3,0.1l0.5,0.1l0.6,0l0.3,0.1l0.6,0.1l0.6,0.2l0.4,0.1l0.3,0.1l0.5,0.2l0.4,0.2l0.3,0.1l0.3,0.1l0.2,0.1
		l0.5,0.4l0.2,0.2l0.2,0.2l0.2,0.3l0.1,0.2l0.1,0.3l0.1,0.3l0.1,0.4l0,0.3L214.6,37.2z"/>
	<path d="M234.6,37.2l0,0.3l0,0.3l-0.1,0.3l-0.1,0.4l-0.1,0.3l-0.2,0.4l-0.1,0.2l-0.2,0.3l-0.2,0.2l-0.2,0.2l-0.2,0.2l-0.4,0.2
		l-0.2,0.2l-0.3,0.1l-0.3,0.1l-0.4,0.1l-0.5,0.2l-0.3,0.1l-0.5,0.1l-0.3,0l-0.4,0l-0.3,0l-0.4,0l-0.9,0.1h-0.4l-0.3,0l-0.4,0l-0.3,0
		l-0.3-0.1l-0.3-0.1l-0.4-0.1l-0.3-0.1l-0.3-0.1l-0.3-0.1l-0.2-0.1l-0.6-0.4l-0.2-0.2l-0.3-0.3l-0.2-0.2l-0.2-0.2l-0.1-0.2l0-0.1
		l0.1-0.2l0.1-0.1l0.2-0.2l0.5-0.5l0.2-0.2l0.3-0.5l0.2-0.2l0.2-0.2l0.2-0.1l0.2,0l0.2,0.1l0.6,0.4l0.3,0.1l0.3,0.1l0.4,0.2l0.3,0.1
		l0.3,0.1l0.3,0.1l0.4,0l0.3,0l1.1-0.1l0.3,0l0.1,0l0.3-0.1l0.2-0.1l0.2-0.2l0.1-0.1l0.1-0.3l0-0.3l0-0.1l-0.1-0.3l-0.1-0.1
		l-0.2-0.2l-0.1-0.1l-0.3-0.1l-0.3-0.1l-0.3-0.1l-1.7-0.2l-0.5-0.1l-0.3-0.1l-0.4-0.1l-0.3-0.1l-0.3-0.1l-0.6-0.3l-0.2-0.2l-0.3-0.2
		l-0.2-0.2l-0.3-0.3l-0.2-0.2l-0.2-0.3l-0.1-0.3l-0.1-0.4l-0.1-0.3l-0.1-0.4l0-0.6l0-0.3l0-0.4l0.1-0.3l0.1-0.2l0.1-0.3l0.2-0.4
		l0.1-0.3l0.1-0.2l0.2-0.2l0.3-0.3L225,29l0.2-0.2l0.3-0.1l0.3-0.2l0.5-0.2l0.3-0.1l0.4-0.1l0.3-0.1l0.5-0.1l0.4-0.1l0.3,0l0.3,0
		h0.3l0.5,0.1l0.3,0l0.1,0l0.3,0l0.6,0.1l0.3,0.1l0.3,0.1l0.3,0.1l0.3,0.1l0.3,0.1l0.3,0.1l0.3,0.2l0.3,0.1l0.2,0.2l0.2,0.2v0.2
		l-0.1,0.2l-0.2,0.4l-0.1,0.2l-0.7,0.9l-0.2,0.3l-0.2,0.2l-0.1,0.1l-0.1,0l-0.2-0.1l-0.3-0.2l-0.3-0.1l-0.1-0.1l-0.3-0.1l-0.1,0
		l-0.3-0.1l-0.4-0.1l-0.3,0l-0.5,0h-0.5l-0.3,0l-0.3,0.1l-0.3,0.1l-0.1,0.1l-0.2,0.2l-0.1,0.1l-0.1,0.3l0,0.3l0.1,0.2l0.1,0.2
		l0.2,0.2l0.2,0.1l0.1,0.1l0.3,0.1l0.5,0.1l0.6,0l0.3,0.1l0.6,0.1l0.6,0.2l0.4,0.1l0.3,0.1l0.5,0.2l0.4,0.2l0.3,0.1l0.3,0.1l0.2,0.1
		l0.5,0.4l0.2,0.2l0.2,0.2l0.2,0.3l0.1,0.2l0.1,0.3l0.1,0.3l0.1,0.4l0,0.3L234.6,37.2z"/>
	<path d="M246.3,29.7l0,0.3l0,0.5l0,0.3l0,0.1l0,0.2l-0.1,0.1l-0.1,0.1l-0.2,0h-0.3l-0.5-0.1l-0.3,0l-0.8,0.1h-0.3l-0.5,0h-0.3
		l-0.1,0l-0.2,0.1l-0.1,0.1l0,0.2l-0.1,1.1v0.3l0.1,1.1l0,0.3l-0.1,1.1l0,0.3l0,1.1v1.7l0,1.1l0,0.3l0.1,0.8l0,0.3l-0.1,0.2
		l-0.1,0.1l-0.2,0l-0.3,0l-0.5-0.1l-0.3,0l-0.8,0.1h-0.3l-0.8-0.1l-0.2,0l-0.1-0.1l0-0.2v-0.3l0.1-0.8l0-0.3v-1.4l0-1.1v-0.3l0-1.1
		v-0.3l-0.1-1.1l0-0.3v-1.4l0-1.1v-0.3l-0.1-0.1l-0.2,0h-0.3l-0.6,0h-0.3l-0.5,0l-0.3,0l-0.3,0l-0.4,0h-0.3l-0.1,0l-0.2,0l-0.1-0.1
		l-0.1-0.1l0-0.2v-0.1l0-0.3l0-0.5v-0.3l-0.1-0.7l0-0.3l0.1-0.2l0.1-0.1l0.1-0.1l0.2,0h0.4l0.7,0.1h0.3l1-0.1h0.3l1.1,0.1h0.3
		l1.3-0.1l1,0h0.3l1.4,0h1.3l0.6,0l0.3,0l0.1,0l0.2,0l0.1,0.1l0.1,0.1l0,0.2v0.1l0,0.3L246.3,29.7z"/>
	<path d="M259.7,40.7l0.1,0.3l-0.1,0.2l-0.2,0.1l-0.2,0h-0.3l-0.4,0l-0.3,0h-0.8l-1.1,0.1l-0.2-0.1l-0.1-0.1l-0.1-0.2l-0.6-1.5
		l-0.1-0.2l-0.2,0l-0.2,0l-1.1-0.1h-0.3l-1.4,0l-1.1,0h-0.3l-0.3,0h-0.8l-0.2,0l-0.1,0.1l-0.1,0.2l-0.4,1.2l-0.1,0.3l-0.2,0.2
		l-0.3,0.1h-0.3l-1-0.1h-0.3l-1.1,0.1l-0.2,0l-0.2-0.1l-0.1-0.2l0-0.2l0-0.1l0.1-0.3l0.3-0.6l0.1-0.3l0.5-1l0.1-0.3l0.5-1l0.1-0.3
		l0.4-1l0.1-0.3l0.5-1l0.1-0.3l0.6-1.5l0.5-1.1l0.1-0.3l0.4-0.8l0.1-0.3l0.3-0.8l0.1-0.3l0.3-0.7l0.1-0.2l0.2-0.1l0.3-0.1l0.8,0h1.4
		l0.8,0l0.3,0.1l0.2,0.1l0.1,0.2l0.3,0.7l0.1,0.3l0.5,0.8l0.1,0.3l0.4,0.9l0.1,0.3l0.3,0.9l0.1,0.3l0.4,0.9l0.1,0.3l0.4,0.9l0.1,0.3
		l0.4,0.9l0.1,0.3l0.6,1.1l0.4,0.8l0.1,0.3l0.5,1.1L259.7,40.7z M253.7,35.7l-0.1-0.2l-0.4-1.2l-0.1-0.3l-0.4-1.1l-0.1-0.2l-0.2-0.1
		l-0.2-0.1l-0.2,0.1l-0.2,0.2l-0.5,1.2l-0.1,0.3l-0.5,1.2l-0.1,0.3l0.1,0.2L251,36l0.3,0h1.1l0.8,0.1l0.2-0.1l0.1-0.1L253.7,35.7z"
		/>
	<path d="M273.7,41.2l-0.2,0.1h-1.3l-1,0h-0.3l-0.8,0h-0.2l-0.2-0.1l-0.1-0.1l-0.6-0.8l-0.2-0.2l-0.6-0.8l-0.2-0.2l-0.5-0.8
		l-0.2-0.2l-0.6-0.8l-0.1-0.1l-0.1-0.1l-0.2,0l-0.6,0l-0.2,0l-0.1,0.1l-0.1,0.2l0,1l0,0.3l0.1,1l0,0.3l0,0.4v0.3l0,0.3l0,0.2
		l-0.1,0.1l-0.2,0.1h-0.3l-0.9-0.1l-0.8,0.1h-0.3l-0.8-0.1l-0.2,0l-0.1-0.1l0-0.2l0-0.3l0-0.3l0-0.5l0-0.3l0.1-1v-0.3l-0.1-1l0-0.3
		l0-1v-0.3l0.1-1v-0.3l-0.1-1v-0.3l0.1-1v-0.3l0-1v-0.3l0-1v-0.3l0-0.6l0-0.3l0-0.1l0.1-0.2l0.1-0.1l0.2-0.1l0.1,0l0.3,0l0.8,0
		l2.1,0.1l1.2-0.1h0.3l1.2,0.1h0.7l0.3,0l0.3,0.1l0.4,0.1l0.3,0.1l0.3,0.1l0.3,0.1l0.3,0.1l0.2,0.1l0.3,0.2l0.2,0.2l0.2,0.2l0.2,0.2
		l0.3,0.4l0.2,0.2l0.2,0.3l0.1,0.3l0.1,0.3l0.1,0.3l0.1,0.3l0,0.3l0,0.4v0.3l0,0.3l0,0.3l-0.1,0.3l-0.1,0.3l-0.1,0.3l-0.1,0.3
		l-0.2,0.3l-0.2,0.2l-0.2,0.2l-0.2,0.2l-0.3,0.3l-0.2,0.2l-0.4,0.2l-0.2,0.1l-0.2,0.1l-0.2,0.1l-0.1,0.1l0.1,0.1l0.6,0.9l0.2,0.2
		l0.6,0.9l0.2,0.2l0.6,0.9l0.2,0.2l0.6,0.6l0.2,0.2l0.1,0.2L273.7,41.2z M268.6,34.2l0.2-0.1L269,34l0.2-0.2l0.1-0.3l0.1-0.3l0-0.3
		l0-0.3l0-0.3l-0.1-0.3l-0.1-0.3l-0.2-0.2l-0.2-0.2l-0.3-0.1l-0.4-0.1l-0.3,0l-0.9,0h-0.3l-0.9,0.1l-0.2,0l-0.1,0.1l-0.1,0.1l0,0.2
		l0,0.4l0,0.3l0,0.3l0,0.3l0,1l0,0.2l0,0.1l0.1,0.1l0.2,0l0.9,0.1h0.3l1.2-0.1L268.6,34.2z"/>
	<path d="M285.2,29.7l0,0.3l0,0.5l0,0.3l0,0.1l0,0.2l-0.1,0.1l-0.1,0.1l-0.2,0h-0.3l-0.5-0.1l-0.3,0l-0.8,0.1h-0.3l-0.5,0h-0.3
		l-0.1,0l-0.2,0.1l-0.1,0.1l0,0.2l-0.1,1.1v0.3l0.1,1.1l0,0.3l-0.1,1.1l0,0.3l0,1.1v1.7l0,1.1l0,0.3l0.1,0.8l0,0.3l-0.1,0.2
		l-0.1,0.1l-0.2,0l-0.3,0l-0.5-0.1l-0.3,0l-0.8,0.1h-0.3l-0.8-0.1l-0.2,0l-0.1-0.1l0-0.2v-0.3l0.1-0.8l0-0.3v-1.4l0-1.1v-0.3l0-1.1
		v-0.3l-0.1-1.1l0-0.3v-1.4l0-1.1v-0.3l-0.1-0.1l-0.2,0h-0.3l-0.6,0h-0.3l-0.5,0l-0.3,0l-0.3,0l-0.4,0h-0.3l-0.1,0l-0.2,0l-0.1-0.1
		l-0.1-0.1l0-0.2v-0.1l0-0.3l0-0.5v-0.3l-0.1-0.7l0-0.3l0.1-0.2l0.1-0.1l0.1-0.1l0.2,0h0.4l0.7,0.1h0.3l1-0.1h0.3l1.1,0.1h0.3
		l1.3-0.1l1,0h0.3l1.3,0h1.3l0.6,0l0.3,0l0.1,0l0.2,0l0.1,0.1l0.1,0.1l0,0.2v0.1l0,0.3L285.2,29.7z"/>
	<path d="M297.4,39.6l0,0.3l-0.1,1l0,0.2l-0.1,0.1l-0.1,0.1l-2.4,0.1h-0.3l-1-0.1l-0.3,0l-0.9,0.1l-0.3,0h-1.2l-0.9-0.1h-0.3
		l-1.5,0.1l-0.6,0l-0.2,0l-0.1-0.1L287,41l0-0.2l0-0.4l0-0.3l0-0.3v-0.3l0.1-1v-0.3l0-1l0-0.3l-0.1-1l0-0.3l0-1v-1.5l0.1-1l0-0.3
		l-0.1-1l0-0.3v-0.4l0-0.5v-0.3l0.1-0.9l0-0.3l0.1-0.1l0.1-0.1l0.1,0l0.2,0l1.2,0.1l1.1,0h0.3l1.1,0.1h0.3l1.1-0.1h0.3l2.4,0l0.3,0
		l0.6-0.1h0.5l0.3,0.1l0.1,0.1l0,0.1l0,0.2v0.5l0,0.5v0.3l0,0.5l0,0.3l0,0.3l0,0.2l-0.1,0.1l-0.1,0.1l-0.2,0h-0.1l-0.3,0l-1.7,0
		h-0.3l-0.9,0h-0.3l-0.9,0l-0.8-0.1h-0.3l-0.1,0l-0.2,0l-0.1,0.1l0,0.1l0,0.2l0,0.4v0.3l0,0.3l0,0.2l0,0.1l0.1,0.1l0.2,0.1l0.6,0
		l0.6,0h1.7l2-0.1l0.6,0l0.2,0l0.1,0.1l0.1,0.1l0,0.2l0,0.3l0,0.3v0.6l0,0.4l0,0.5l0,0.2l-0.1,0.1l-0.1,0.1l-0.2,0H296l-0.8-0.1
		l-0.3,0l-1.4,0.1l-1.2,0H292l-0.7-0.1l-0.3,0l-0.2,0l-0.1,0.1l-0.1,0.1l0,0.3l-0.1,0.5l0,0.3v0.4l0,0.2l0.1,0.1l0.1,0.1l0.2,0l1,0
		h0.3l1-0.1l1.3,0.1h0.3l1.3-0.1h0.3l0.3,0l0.6,0.1l0.1,0.1l0.1,0.1l0,0.2L297.4,39.6z"/>
	<path d="M311.6,41.2l-0.2,0.1h-1.3l-1,0h-0.3l-0.8,0h-0.2l-0.2-0.1l-0.1-0.1l-0.6-0.8l-0.2-0.2l-0.6-0.8L306,39l-0.5-0.8l-0.2-0.2
		l-0.6-0.8l-0.1-0.1l-0.1-0.1l-0.2,0l-0.6,0l-0.2,0l-0.1,0.1l-0.1,0.2l0,1l0,0.3l0.1,1l0,0.3l0,0.4v0.3l0,0.3l0,0.2l-0.1,0.1
		l-0.2,0.1h-0.3l-0.9-0.1l-0.8,0.1h-0.3l-0.8-0.1l-0.2,0l-0.1-0.1l0-0.2l0-0.3l0-0.3l0-0.5l0-0.3l0.1-1v-0.3l-0.1-1l0-0.3l0-1v-0.3
		l0.1-1v-0.3l-0.1-1v-0.3l0.1-1v-0.3l0-1v-0.3l0-1v-0.3l0-0.6l0-0.3l0-0.1l0.1-0.2l0.1-0.1l0.2-0.1l0.1,0l0.3,0l0.8,0l2.1,0.1
		l1.2-0.1h0.3l1.2,0.1h0.7l0.3,0l0.3,0.1l0.4,0.1l0.3,0.1l0.3,0.1l0.3,0.1l0.3,0.1L309,29l0.3,0.2l0.2,0.2l0.2,0.2l0.2,0.2l0.3,0.4
		l0.2,0.2l0.2,0.3l0.1,0.3l0.1,0.3l0.1,0.3l0.1,0.3l0,0.3l0,0.4v0.3l0,0.3l0,0.3l-0.1,0.3l-0.1,0.3l-0.1,0.3l-0.1,0.3l-0.2,0.3
		l-0.2,0.2l-0.2,0.2l-0.2,0.2l-0.3,0.3l-0.2,0.2l-0.4,0.2l-0.2,0.1l-0.2,0.1l-0.2,0.1l-0.1,0.1l0.1,0.1l0.6,0.9l0.2,0.2l0.6,0.9
		l0.2,0.2l0.6,0.9l0.2,0.2l0.6,0.6l0.2,0.2l0.1,0.2L311.6,41.2z M306.5,34.2l0.2-0.1L307,34l0.2-0.2l0.1-0.3l0.1-0.3l0-0.3l0-0.3
		l0-0.3l-0.1-0.3l-0.1-0.3l-0.2-0.2l-0.2-0.2l-0.3-0.1l-0.4-0.1l-0.3,0l-0.9,0h-0.3l-0.9,0.1l-0.2,0l-0.1,0.1l-0.1,0.1l0,0.2l0,0.4
		l0,0.3l0,0.3l0,0.3l0,1l0,0.2l0,0.1l0.1,0.1l0.2,0l0.9,0.1h0.3l1.2-0.1L306.5,34.2z"/>
	<path d="M331,29.7l0,0.3l0,0.5l0,0.3l0,0.1l0,0.2l-0.1,0.1l-0.1,0.1l-0.2,0h-0.3l-0.5-0.1l-0.3,0l-0.8,0.1h-0.3l-0.5,0h-0.3l-0.1,0
		l-0.2,0.1l-0.1,0.1l0,0.2l-0.1,1.1v0.3l0.1,1.1l0,0.3l-0.1,1.1l0,0.3l0,1.1v1.7l0,1.1l0,0.3l0.1,0.8l0,0.3l-0.1,0.2l-0.1,0.1
		l-0.2,0l-0.3,0l-0.5-0.1l-0.3,0l-0.8,0.1h-0.3l-0.8-0.1l-0.2,0l-0.1-0.1l0-0.2v-0.3l0.1-0.8l0-0.3v-1.4l0-1.1v-0.3l0-1.1v-0.3
		l-0.1-1.1l0-0.3v-1.4l0-1.1v-0.3l-0.1-0.1l-0.2,0h-0.3l-0.6,0H322l-0.5,0l-0.3,0l-0.3,0l-0.4,0h-0.3l-0.1,0l-0.2,0l-0.1-0.1
		l-0.1-0.1l0-0.2v-0.1l0-0.3l0-0.5v-0.3l-0.1-0.7l0-0.3l0.1-0.2l0.1-0.1l0.1-0.1l0.2,0h0.4l0.7,0.1h0.3l1-0.1h0.3l1.1,0.1h0.3
		l1.3-0.1l1,0h0.3l1.4,0h1.3l0.6,0l0.3,0l0.1,0l0.2,0l0.1,0.1l0.1,0.1l0,0.2v0.1l0,0.3L331,29.7z"/>
	<path d="M344.8,39.6l0,0.3l0,0.4l0,0.3l0,0.3l-0.1,0.2l-0.1,0.1l-0.2,0l-0.3,0l-1-0.1h-0.3l-1,0.1h-0.3l-0.3-0.1l-0.1-0.1l0-0.3
		l-0.1-1.2l0-0.3l0-1.2v-0.3l0-1.2v-0.3l-0.1-0.1l-0.2-0.1h-0.4l-0.7,0.1l-0.3,0l-1.4,0l-1-0.1l-0.2,0l-0.2,0.1l-0.1,0.2l0,0.3
		l0,1.2v0.3l0,1.2l0,0.3l0.1,0.8v0.4l-0.1,0.3l-0.2,0.1l-0.2,0.1l-0.3,0l-0.3,0l-0.8-0.1l-0.3,0l-0.8,0.1l-0.3,0h-0.1l-0.2,0
		l-0.1-0.1l-0.1-0.1l0-0.2l0-0.2v-0.3l0-0.5v-1.5l0-1v-0.3l0-1v-0.3l-0.1-1v-0.3l0-1v-1.2l0-0.3l0.1-1l0-0.3l0-1l0-0.3l-0.1-0.6
		v-0.4l0.1-0.2l0.2-0.1l0.2-0.1l0.3,0h0.3l0.8,0h0.3l0.7-0.1h0.3l0.3,0l0.2,0l0.1,0.1l0.1,0.2l0,0.1v0.3l-0.1,0.8l0,0.3l0,1.2v1.5
		l0,0.2l0.1,0.1l0.1,0.1l0.2,0l0.3,0h0.3l0.7-0.1l0.3,0l1.2,0l1.1,0.1h0.3l0.1,0l0.2-0.1l0.1-0.1l0-0.2l0.1-1.2v-0.3l0-1.2v-0.3
		l0-1.2l0.1-0.3l0.1-0.2l0.2,0h0.3l1,0.1h0.3l0.8-0.1l0.3,0h0.2l0.2,0l0.1,0.1l0.1,0.3v0.3l-0.1,0.7l0,0.3l0.1,1v0.3l0,1v0.3l0.1,1
		v0.3l-0.1,1v0.3l0,1v0.3l0,1v0.3l0,1V39.6z"/>
	<path d="M357.8,39.6l0,0.3l-0.1,1l0,0.2l-0.1,0.1l-0.1,0.1l-2.4,0.1h-0.3l-1-0.1l-0.3,0l-0.9,0.1l-0.3,0h-1.2l-0.9-0.1H350
		l-1.5,0.1l-0.6,0l-0.2,0l-0.1-0.1l-0.1-0.1l0-0.2l0-0.4l0-0.3l0-0.3v-0.3l0.1-1v-0.3l0-1l0-0.3l-0.1-1l0-0.3l0-1v-1.5l0.1-1l0-0.3
		l-0.1-1l0-0.3v-0.4l0-0.5v-0.3l0.1-0.9l0-0.3l0.1-0.1l0.1-0.1l0.1,0l0.2,0l1.2,0.1l1.1,0h0.3l1.1,0.1h0.3l1.1-0.1h0.3l2.4,0l0.3,0
		l0.6-0.1h0.5l0.3,0.1l0.1,0.1l0,0.1l0,0.2v0.5l0,0.5v0.3l0,0.5l0,0.3l0,0.3l0,0.2l-0.1,0.1l-0.1,0.1l-0.2,0H357l-0.3,0l-1.7,0h-0.3
		l-0.9,0h-0.3l-0.9,0l-0.8-0.1h-0.3l-0.1,0l-0.2,0l-0.1,0.1l0,0.1l0,0.2l0,0.4v0.3l0,0.3l0,0.2l0,0.1l0.1,0.1l0.2,0.1l0.6,0l0.6,0
		h1.7l2-0.1l0.6,0l0.2,0l0.1,0.1l0.1,0.1l0,0.2l0,0.3l0,0.3v0.6l0,0.4l0,0.5l0,0.2l-0.1,0.1l-0.1,0.1l-0.2,0h-0.4l-0.8-0.1l-0.3,0
		l-1.4,0.1l-1.2,0h-0.3l-0.7-0.1l-0.3,0l-0.2,0l-0.1,0.1l-0.1,0.1l0,0.3l-0.1,0.5l0,0.3v0.4l0,0.2l0.1,0.1l0.1,0.1l0.2,0l1,0h0.3
		l1-0.1l1.3,0.1h0.3l1.3-0.1h0.3l0.3,0l0.6,0.1l0.1,0.1l0.1,0.1l0,0.2L357.8,39.6z"/>
	<path d="M374.4,39.6l0,0.3l0.1,0.6l0,0.3l0,0.1l0,0.2l-0.1,0.1l-0.1,0.1l-0.2,0l-0.3,0h-0.3l-0.7-0.1l-0.3,0h-0.5l-0.3,0l-0.7-0.1
		l-0.1,0l-0.1-0.1l0-0.2l0-0.3l0-0.3l0-0.6V38l-0.1-1.1v-0.3l0.1-1.1v-1.4l0-0.2l-0.1-0.1h-0.1l-0.1,0.2l-0.2,0.3l-0.8,0.9l-1.1,1.3
		l-0.7,0.9l-0.2,0.1l-0.1,0.1h-0.1l-0.2,0l-0.2-0.1l-0.2-0.1l-0.9-1.1l-0.7-0.9l-0.2-0.2l-0.9-1l-0.2-0.2l-0.1,0l0,0.2l-0.1,1.1v0.3
		l0.1,1.1v0.3l0,1.1v0.3l0,1.1v0.3l0,0.5l0,0.3l0,0.3l0,0.2l-0.1,0.1l-0.1,0l-0.5,0.1l-0.3,0l-0.7-0.1l-0.3,0l-0.9,0.1h-0.4l-0.2,0
		l-0.1-0.1l0-0.1l0-0.2v-0.4l0-0.6v-2.8l0-1v-0.3l0-1l0-0.3l-0.1-1v-0.3l0.1-1l0-0.3l-0.1-1l0-0.3l0.1-1v-0.3L360,29v-0.3l0-0.2
		l0.1-0.1l0.1-0.1l0.1,0l0.2,0l0.3,0l0.4,0.1h0.3l0.6-0.1l0.3,0l0.3,0l0.7,0h0.2l0.2,0.1l0.2,0.2l0.6,0.7l0.2,0.2l0.5,0.7l0.2,0.2
		l0.6,0.7l0.2,0.3l0.6,0.7l0.2,0.2l0.2,0.1h0.2l0.2-0.1l0.2-0.2l0.5-0.7l0.2-0.3l0.6-0.7l0.2-0.2l0.6-0.7l0.2-0.2l0.5-0.6l0.1-0.2
		l0.1-0.1l0.2-0.1l0.2,0l1,0.1l0.8,0h0.3l0.5,0l0.3,0l0.2,0l0.1,0l0.1,0.1l0,0.1l0,0.2l-0.1,0.8l0,0.3l0,1v0.3l0,1v0.3l0,1v0.3
		l0.1,1v0.3l-0.1,1v0.3l0.1,1v0.3l-0.1,1v0.3L374.4,39.6z"/>
	<path d="M387.5,39.6l0,0.3l-0.1,1l0,0.2l-0.1,0.1l-0.1,0.1l-2.4,0.1h-0.3l-1-0.1l-0.3,0l-0.9,0.1l-0.3,0h-1.2l-0.9-0.1h-0.3
		l-1.5,0.1l-0.6,0l-0.2,0l-0.1-0.1l-0.1-0.1l0-0.2l0-0.4l0-0.3l0-0.3v-0.3l0.1-1v-0.3l0-1l0-0.3l-0.1-1l0-0.3l0-1v-1.5l0.1-1l0-0.3
		l-0.1-1l0-0.3v-0.4l0-0.5v-0.3l0.1-0.9l0-0.3l0.1-0.1l0.1-0.1l0.1,0l0.2,0l1.2,0.1l1.1,0h0.3l1.1,0.1h0.3l1.1-0.1h0.3l2.4,0l0.3,0
		l0.6-0.1h0.5l0.3,0.1l0.1,0.1l0,0.1l0,0.2v0.5l0,0.5v0.3l0,0.5l0,0.3l0,0.3l0,0.2l-0.1,0.1l-0.1,0.1l-0.2,0h-0.1l-0.3,0l-1.7,0
		h-0.3l-0.9,0h-0.3l-0.9,0l-0.8-0.1h-0.3l-0.1,0l-0.2,0l-0.1,0.1l0,0.1l0,0.2l0,0.4v0.3l0,0.3l0,0.2l0,0.1l0.1,0.1l0.2,0.1l0.6,0
		l0.6,0h1.7l2-0.1l0.6,0l0.2,0l0.1,0.1l0.1,0.1l0,0.2l0,0.3l0,0.3v0.6l0,0.4l0,0.5l0,0.2l-0.1,0.1l-0.1,0.1l-0.2,0h-0.4l-0.8-0.1
		l-0.3,0l-1.4,0.1l-1.2,0h-0.3l-0.7-0.1l-0.3,0l-0.2,0l-0.1,0.1l-0.1,0.1l0,0.3l-0.1,0.5l0,0.3v0.4l0,0.2l0.1,0.1l0.1,0.1l0.2,0l1,0
		h0.3l1-0.1l1.3,0.1h0.3l1.3-0.1h0.3l0.3,0l0.6,0.1l0.1,0.1l0.1,0.1l0,0.2L387.5,39.6z"/>
</g>
</svg>
